<?xml version="1.0" encoding="UTF-8" standalone="no"?>
<!DOCTYPE svg PUBLIC "-//W3C//DTD SVG 1.1//EN" "http://www.w3.org/Graphics/SVG/1.1/DTD/svg11.dtd">
<svg width="100%" height="100%" viewBox="0 0 1453 384" version="1.1" xmlns="http://www.w3.org/2000/svg" xmlns:xlink="http://www.w3.org/1999/xlink" xml:space="preserve" xmlns:serif="http://www.serif.com/" style="fill-rule:evenodd;clip-rule:evenodd;stroke-linejoin:round;stroke-miterlimit:2;">
    <g transform="matrix(9.06043,0,0,9.06043,138.542,223.588)">
        <path d="M0,-6.997C-1.139,-7.655 -2.223,-7.809 -3.363,-7.809C-6.977,-7.809 -8.426,-5.257 -8.426,-2.705C-8.426,-0.31 -6.901,0.813 -4.735,0.813C-3.44,0.813 -2.261,0.542 -1.315,0.058L-1.701,2.959C-2.571,3.247 -4.077,3.478 -5.296,3.478C-9.644,3.478 -12.138,0.908 -12.138,-2.802C-12.138,-7.287 -8.99,-10.475 -3.924,-10.475C-1.333,-10.475 0.115,-10.032 0.851,-9.762L0,-6.997" style="fill:rgb(0,73,144);fill-rule:nonzero;"/>
    </g>
    <g transform="matrix(9.06043,0,0,9.06043,269.366,205.213)">
        <path d="M0,-2.939C0,-5.723 -1.604,-8.446 -5.992,-8.446C-11.19,-8.446 -13.878,-5.104 -13.878,0.019C-13.878,2.782 -12.274,5.507 -7.885,5.507C-2.686,5.507 0,2.163 0,-2.939ZM-3.712,-2.649C-3.712,-0.386 -4.87,2.841 -7.654,2.841C-9.529,2.841 -10.166,1.428 -10.166,-0.272C-10.166,-2.553 -9.008,-5.781 -6.223,-5.781C-4.349,-5.781 -3.712,-4.349 -3.712,-2.649" style="fill:rgb(0,73,144);fill-rule:nonzero;"/>
    </g>
    <g transform="matrix(9.06043,0,0,9.06043,297.027,253.007)">
        <path d="M0,-13.492L9.026,-13.492L8.527,-10.94L3.035,-10.94L2.359,-7.982L7.655,-7.982L7.133,-5.431L1.915,-5.431L0.775,0L-2.86,0L0,-13.492" style="fill:rgb(0,73,144);fill-rule:nonzero;"/>
    </g>
    <g transform="matrix(9.06043,0,0,9.06043,397.036,253.007)">
        <path d="M0,-13.492L3.633,-13.492L0.83,0L-2.803,0L0,-13.492" style="fill:rgb(0,73,144);fill-rule:nonzero;"/>
    </g>
    <g transform="matrix(9.06043,0,0,9.06043,428.557,130.764)">
        <path d="M0,13.492L3.614,13.492L4.697,8.159L5.083,8.159C6.706,8.159 6.823,8.294 7.171,10.052L7.866,13.492L11.462,13.492L10.496,9.336C10.302,8.467 9.954,7.037 8.892,6.94L8.892,6.901C10.959,6.65 12.814,5.818 12.814,3.442C12.814,0.099 9.723,0.021 7.151,0L2.841,0L0,13.492ZM5.839,2.552L7.557,2.552C8.64,2.572 9.22,2.978 9.22,3.945C9.22,5.22 8.002,5.606 6.437,5.606L5.218,5.606L5.839,2.552" style="fill:rgb(0,73,144);fill-rule:nonzero;"/>
    </g>
    <g transform="matrix(9.06043,0,0,9.06043,678.1,205.213)">
        <path d="M0,-2.939C0,-5.723 -1.603,-8.446 -5.99,-8.446C-11.19,-8.446 -13.877,-5.104 -13.877,0.019C-13.877,2.782 -12.273,5.507 -7.884,5.507C-2.686,5.507 0,2.163 0,-2.939ZM-3.71,-2.649C-3.71,-0.386 -4.869,2.841 -7.654,2.841C-9.528,2.841 -10.165,1.428 -10.165,-0.272C-10.165,-2.553 -9.005,-5.781 -6.223,-5.781C-4.348,-5.781 -3.71,-4.349 -3.71,-2.649" style="fill:rgb(0,73,144);fill-rule:nonzero;"/>
    </g>
    <g transform="matrix(9.06043,0,0,9.06043,801.041,198.191)">
        <path d="M0,-1.161C-0.889,3.132 -1.93,6.281 -6.843,6.281C-9.875,6.281 -12.255,5.199 -12.255,2.03C-12.255,0.968 -12.099,0.097 -11.965,-0.521L-10.436,-7.442L-6.784,-7.442L-8.407,0.194C-8.541,0.831 -8.659,1.353 -8.659,1.663C-8.659,2.766 -8.021,3.616 -6.745,3.616C-4.426,3.616 -4.059,0.831 -3.594,-1.332L-2.261,-7.442L1.315,-7.442L0,-1.161" style="fill:rgb(0,73,144);fill-rule:nonzero;"/>
    </g>
    <g transform="matrix(9.06043,0,0,9.06043,849.731,228.825)">
        <path d="M0,-8.154L-3.362,-8.154L-2.785,-10.823L7.594,-10.823L7.015,-8.154L3.652,-8.154L1.353,2.669L-2.302,2.669L0,-8.154" style="fill:rgb(0,73,144);fill-rule:nonzero;"/>
    </g>
    <g transform="matrix(9.06043,0,0,9.06043,931.701,253.007)">
        <path d="M0,-13.492L9.489,-13.492L8.968,-10.94L3.033,-10.94L2.415,-8.156L8.039,-8.156L7.479,-5.606L1.874,-5.606L1.216,-2.549L7.384,-2.549L6.86,0L-2.9,0L0,-13.492" style="fill:rgb(0,73,144);fill-rule:nonzero;"/>
    </g>
    <g transform="matrix(6.40637,-6.40701,-6.40701,-6.40637,1323.6,411.851)">
        <path d="M-4.233,9.779L24.022,9.779C20.844,12.981 17.734,15.659 14.514,17.868C9.561,13.373 2.986,10.632 -4.23,10.634L-4.233,9.779" style="fill:rgb(0,157,87);fill-rule:nonzero;"/>
    </g>
    <g transform="matrix(9.06043,0,0,9.06043,1201.09,213.603)">
        <path d="M0,14.345C4.01,10.333 6.275,5.239 6.805,0C1.818,1.421 -2.79,3.673 -7.417,6.964L0,14.345" style="fill:rgb(0,157,87);fill-rule:nonzero;"/>
    </g>
    <g transform="matrix(0.34594,9.05382,9.05382,-0.34594,1076.79,12.1797)">
        <path d="M19.721,-3.766C19.721,-3.766 19.281,9.138 19.566,16.596C19.609,17.71 19.659,18.808 19.721,19.885C13.965,19.883 8.199,17.804 3.649,13.589L19.721,-3.766" style="fill:rgb(0,73,144);fill-rule:nonzero;"/>
    </g>
    <g transform="matrix(-6.21386,6.59388,6.59388,6.21386,1451.39,90.2722)">
        <path d="M10.692,-23.747C10.911,-16.332 14.007,-9.675 18.88,-4.816C14.028,0.713 10.692,5.03 10.692,5.03L9.838,-23.723L10.692,-23.747" style="fill:rgb(0,73,144);fill-rule:nonzero;"/>
    </g>
</svg>
