<svg height="160.756638" viewBox="0 0 47.209379 12.226507" width="622.058294" xmlns="http://www.w3.org/2000/svg" xmlns:xlink="http://www.w3.org/1999/xlink"><clipPath id="a"><path d="m543 47h23.92969v24h-23.92969zm0 0"/></clipPath><g transform="translate(-132.42644 -51.558715)"><g fill="#19458f"><path d="m153.33569 56.106517v3.819922s1.39181.345888 3.57049.345888c2.16215 0 3.56912-.34451 3.56912-.34451v-1.298112s-1.5117.297656-3.58427.297656c-1.00597 0-1.67294-.118511-2.03123-.15434 0-.312815.001-1.196137 0-1.511708.40101-.03996 1.07624-.155718 2.04638-.155718 2.01745.0083 3.56912.307302 3.56912.307302v-1.307758s-1.38493-.34451-3.56912-.34451c-2.20072 0-3.57049.345888-3.57049.345888"/><path d="m162.17029 60.186888h1.5627v-4.354601h-1.5627zm0 0"/><path d="m141.2558 60.186888h1.5627v-4.354601h-1.5627zm0 0"/><path d="m150.09179 60.18551s-1.13-.913639-2.79191-1.774913c-.46302-.239779-.85438-.399631-1.21819-.547081v2.321994h-1.51308v-4.344954s1.28019.248046 2.73403 1.001833c1.66191.861274 2.79052 1.696365 2.79052 1.696365v-2.706467h1.51723v4.353223zm0 0"/><path d="m140.21125 56.818963-3.87642 3.48368-3.88193-3.486436 1.1603-1.056956s2.37161 2.282032 2.72163 2.608627c.35002-.326595 2.72025-2.608627 2.72025-2.608627zm0 0"/></g><path d="m167.25939 55.835043h2.17592c.79375-.0014 1.2926-.405143 1.47588-.598068.18465-.192926.61185-.675239.61185-1.236101 0-.0028 0-1.809364 0-1.809364 0-.334863.27147-.606337.60633-.606337h2.35921c.33486 0 .60633.271474.60633.607715v2.359202c0 .334863-.27147.606337-.60633.606337 0 0-1.80662 0-1.80937 0-.56086 0-1.04317.427191-1.2361.611849-.19293.183279-.59669.682129-.59807 1.475879v2.175922h-3.58565z" fill="#eb172b"/><g clip-path="url(#a)" transform="matrix(.35277779 0 0 .35277779 -20.337094 38.998172)"><path d="m566.77734 53.132813c0-1.632813-.66015-3.09375-1.71093-4.15625-1.05079-1.066407-2.52735-1.710938-4.16016-1.710938-3.33984 0-6.00391 2.722656-6.00391 5.96875 0 .59375.25782 1.71875.25782 2.199219 0 2.554687-2.07422 4.628906-4.62891 4.628906h-4.95703c-.94922 0-1.71875.765625-1.71875 1.71875v6.6875c0 .949219.76953 1.71875 1.71875 1.71875h6.6875c.94922 0 1.71875-.769531 1.71875-1.71875v-4.957031c0-2.558594 2.07422-4.628906 4.6289-4.628906.48047 0 1.60547.257812 2.19532.257812 3.25 0 5.97265-2.664062 5.97265-6.007812" fill="#eb172b"/></g></g></svg>